<svg width="100" height="100" viewBox="0 0 100 100" fill="none" xmlns="http://www.w3.org/2000/svg">
<path d="M76.6524 76.9582L75.2615 78.3828L76.6799 79.7801L83.7794 86.774C83.8661 86.8946 83.9106 87.0411 83.9048 87.1906C83.8983 87.359 83.8285 87.5188 83.7093 87.6379C83.5902 87.7571 83.4304 87.8269 83.262 87.8334C83.1109 87.8393 82.9627 87.7937 82.8414 87.705L75.6007 80.4644L74.357 79.2207L72.9646 80.2953C66.8661 85.0017 59.3887 87.5713 51.6854 87.6078C43.9821 87.6443 36.4807 85.1457 30.3379 80.4973L28.9487 79.446L27.7169 80.6779L20.6169 87.7779L20.6094 87.7853L20.6021 87.7928C20.5387 87.8576 20.4632 87.9092 20.3799 87.9447C20.2966 87.9802 20.2071 87.999 20.1166 88C20.026 88.0009 19.9361 87.984 19.8521 87.9502C19.7681 87.9165 19.6915 87.8665 19.6268 87.8031C19.5621 87.7398 19.5105 87.6643 19.4749 87.5809C19.4394 87.4976 19.4206 87.4082 19.4197 87.3176C19.4187 87.227 19.4356 87.1372 19.4694 87.0531L17.6237 86.3113L19.4694 87.0531C19.5023 86.9713 19.5505 86.8966 19.6116 86.8329C19.6132 86.8312 19.6149 86.8295 19.6165 86.8278L26.4081 80.0364L27.8195 78.625L26.4109 77.2108C21.4828 72.2633 18.1296 65.9678 16.7738 59.1176C15.418 52.2675 16.1204 45.1693 18.7924 38.7176C21.4643 32.266 25.9863 26.7497 31.7884 22.864C37.5896 18.9789 44.4108 16.8977 51.3926 16.8827C58.3468 16.892 65.1438 18.9512 70.934 22.8029C76.725 26.6551 81.2517 32.1293 83.9478 38.5407C86.644 44.9521 87.3899 52.0162 86.0923 58.8494C84.7947 65.6825 81.5112 71.9814 76.6524 76.9582ZM72.6604 63.4061L73.1979 62.2483C73.4569 61.6906 73.6031 61.0872 73.6282 60.4728C73.6533 59.8583 73.5568 59.245 73.3442 58.668L71.4675 59.3594L73.3442 58.668C73.1316 58.091 72.8071 57.5616 72.3894 57.1104L70.9217 58.469L72.3894 57.1104C71.9772 56.6651 71.4822 56.3044 70.9322 56.0486L56.061 48.8361V30.0702C56.061 28.8318 55.5691 27.6442 54.6935 26.7686C53.8178 25.8929 52.6302 25.401 51.3919 25.401C50.1535 25.401 48.9659 25.8929 48.0903 26.7686C47.2146 27.6442 46.7227 28.8318 46.7227 30.0702V53.4253V54.6786L47.8505 55.2251L66.9083 64.4604L66.9156 64.464L66.9229 64.4674C68.0379 64.9967 69.3171 65.0629 70.4808 64.6517C71.208 64.3947 71.8531 63.9643 72.3653 63.4061H72.6604ZM77.6434 12.0488C80.7683 12.3159 83.701 13.6685 85.9328 15.8716C88.0254 17.9794 89.3519 20.7272 89.7006 23.6769C89.9007 25.3693 89.7723 27.0722 89.335 28.6956C85.1418 21.9444 79.2301 16.425 72.2078 12.7044C73.9429 12.1192 75.7922 11.8906 77.6434 12.0488ZM23.5321 12.0396C25.6754 11.9246 27.7976 12.3266 29.7275 13.1908C22.3578 17.2915 16.2891 23.387 12.221 30.7752C11.33 28.8446 10.9092 26.7127 11.0164 24.5567C11.179 21.2884 12.5436 18.1956 14.8479 15.8724C17.1779 13.5781 20.2666 12.2149 23.5321 12.0396Z" stroke="black" stroke-width="4"/>
</svg>