<svg width="100" height="100" viewBox="0 0 100 100" fill="none" xmlns="http://www.w3.org/2000/svg">
<path fill-rule="evenodd" clip-rule="evenodd" d="M5 22C5 19.7909 6.79086 18 9 18H61.5C63.7091 18 65.5 19.7909 65.5 22V24H66.75V23C66.75 21.3431 68.0931 20 69.75 20H72.875C74.5319 20 75.875 21.3431 75.875 23V24H79.0704L96 49.3944V72.5C96 74.7091 94.2091 76.5 92 76.5H84C83.9999 75.4588 84 73.9461 84 72.9138C84 72.6384 83.9803 72.3626 83.9225 72.0933C82.9438 67.5346 78.5467 64.5 74 64.5C69.4576 64.5 65.9063 67.6783 65.0641 72.1254C65.017 72.3738 65 72.6266 65 72.8794C65 73.911 65 75.4405 65 76.5H36C36 75.1872 36 73.8744 36 72.8968C36 72.6327 35.9812 72.3681 35.9307 72.1089C35.03 67.4837 31.5028 64.5 26.5 64.5C21.1262 64.5 17 67.5 17 72.5V76.5H9C6.79086 76.5 5 74.7091 5 72.5V22ZM13.1753 72.5C13.1753 66 19.5412 60.5 26.5 60.5C33.6712 60.5 39.8247 66 39.8247 72.5H61.1686C62.1079 65.9416 67.1239 60.5 74 60.5C81.1164 60.5 86.7364 65.513 87.818 72.5H92V50.6056L76.9296 28H71.875V24H70.75V28H61.5V22L9 22V72.5H13.1753Z" fill="black"/>
<path fill-rule="evenodd" clip-rule="evenodd" d="M26.5 79C28.9853 79 31 76.9853 31 74.5C31 72.0147 28.9853 70 26.5 70C24.0147 70 22 72.0147 22 74.5C22 76.9853 24.0147 79 26.5 79ZM26.5 83C31.1944 83 35 79.1944 35 74.5C35 69.8056 31.1944 66 26.5 66C21.8056 66 18 69.8056 18 74.5C18 79.1944 21.8056 83 26.5 83Z" fill="black"/>
<path fill-rule="evenodd" clip-rule="evenodd" d="M74.5 79C76.9853 79 79 76.9853 79 74.5C79 72.0147 76.9853 70 74.5 70C72.0147 70 70 72.0147 70 74.5C70 76.9853 72.0147 79 74.5 79ZM74.5 83C79.1944 83 83 79.1944 83 74.5C83 69.8056 79.1944 66 74.5 66C69.8056 66 66 69.8056 66 74.5C66 79.1944 69.8056 83 74.5 83Z" fill="black"/>
<path fill-rule="evenodd" clip-rule="evenodd" d="M25 27.5H35.5V34.5H42.5V45.5H35.5V52.5H25V45.5H18V34.5H25V27.5ZM29 31.5V38.5H22V41.5H29V48.5H31.5V41.5H38.5V38.5H31.5V31.5H29Z" fill="black"/>
<path fill-rule="evenodd" clip-rule="evenodd" d="M65 34V48H83.1448L73.2832 34H65ZM61 32.1C61 30.9402 61.9402 30 63.1 30H74.0614C74.8745 30 75.6369 30.3955 76.1052 31.0603L88.08 48.0603C89.2467 49.7166 88.0621 52 86.0362 52H63.1C61.9402 52 61 51.0598 61 49.9V32.1Z" fill="black"/>
</svg>
