<svg width="100" height="100" viewBox="0 0 100 100" fill="none" xmlns="http://www.w3.org/2000/svg">
<path fill-rule="evenodd" clip-rule="evenodd" d="M36.8923 16H35.125V44.125H24.7828L15.5964 34.9554C15.4581 34.8171 15.2851 34.75 15.1143 34.75H12.375C11.9914 34.75 11.6875 35.0539 11.6875 35.4375V48.8125H7.6875C7.30387 48.8125 7 49.1164 7 49.5C7 49.8836 7.30387 50.1875 7.6875 50.1875H11.6875V63.5625C11.6875 63.9461 11.9914 64.25 12.375 64.25H15.1289C15.2998 64.25 15.4728 64.1829 15.611 64.0446L24.7806 54.875H35.125V83H36.8923L57.2048 54.875H76.3008C76.9417 54.875 77.5795 54.7588 78.1919 54.5292V54.5292L91.5987 49.5L78.1922 44.4709V44.4709C77.5799 44.2413 76.9417 44.125 76.3008 44.125H57.2048L36.8923 16ZM94.5527 52.6641L79.5967 58.2744C78.542 58.6699 77.4287 58.875 76.3008 58.875H59.25L44.0156 79.9688H46.3594C47.1453 79.9688 47.8693 80.2238 48.4534 80.6561C49.3171 81.2953 49.875 82.3221 49.875 83.4844C49.875 85.4326 48.3076 87 46.3594 87H29.9531C28.0049 87 26.4375 85.4326 26.4375 83.4844C26.4375 81.5361 28.0049 79.9688 29.9531 79.9688H31.125V58.875H26.4375L18.4395 66.873C17.5605 67.752 16.374 68.25 15.1289 68.25H12.375C9.78223 68.25 7.6875 66.1553 7.6875 63.5625V54.1875C5.09473 54.1875 3 52.0928 3 49.5C3 46.9072 5.09473 44.8125 7.6875 44.8125V35.4375C7.6875 32.8447 9.78223 30.75 12.375 30.75H15.1143C16.3594 30.75 17.5459 31.248 18.4248 32.127L26.4375 40.125H31.125V19.0312H29.9531C28.0049 19.0312 26.4375 17.4639 26.4375 15.5156C26.4375 13.5674 28.0049 12 29.9531 12H46.3594C48.3076 12 49.875 13.5674 49.875 15.5156C49.875 16.6779 49.3171 17.7047 48.4534 18.3439C47.8693 18.7762 47.1453 19.0312 46.3594 19.0312H44.0156L59.25 40.125H76.3008C77.4287 40.125 78.542 40.3301 79.5967 40.7256L94.5527 46.3359C95.8711 46.834 96.75 48.0938 96.75 49.5C96.75 50.9062 95.8711 52.166 94.5527 52.6641Z" fill="black"/>
</svg>
