<svg width="100" height="100" viewBox="0 0 100 100" fill="none" xmlns="http://www.w3.org/2000/svg">
<path fill-rule="evenodd" clip-rule="evenodd" d="M35.1257 88.5648L35.1394 88.5997C36.7167 92.6236 40.9624 95.1187 45.1171 95.1187C47.7915 95.1187 50.3991 94.1174 52.3559 92.2693C54.3204 90.4139 55.4701 87.847 55.4701 85.1187C55.4701 82.3903 54.3204 79.8234 52.3559 77.968C50.3991 76.1199 47.7915 75.1187 45.1171 75.1187H16.0583C14.6477 75.1187 13.252 75.6458 12.1888 76.6499C11.1178 77.6614 10.4701 79.0838 10.4701 80.6187C10.4701 82.1535 11.1178 83.5759 12.1888 84.5874C13.252 85.5915 14.6477 86.1187 16.0583 86.1187H34.7999C34.7212 86.9257 34.8236 87.7495 35.1126 88.5296L35.1257 88.5648ZM38.8751 86.1187C38.8902 86.0806 38.9069 86.0431 38.9254 86.0061C39.1025 85.6504 39.4204 85.3746 39.8106 85.238C40.2008 85.1014 40.6322 85.1149 41.012 85.2756C41.3545 85.4206 41.6304 85.6748 41.7925 85.9917C41.8016 86.0093 41.8102 86.0271 41.8185 86.0451C41.8265 86.0624 41.8341 86.0798 41.8414 86.0974C41.8442 86.1045 41.847 86.1116 41.8499 86.1187C42.0183 86.5355 42.3211 86.9181 42.706 87.2347C43.359 87.7719 44.2482 88.1187 45.1171 88.1187C45.9596 88.1187 46.7676 87.8026 47.3633 87.24C47.4062 87.1994 47.4478 87.1578 47.488 87.1152C48.0055 86.5671 48.2936 85.8569 48.2936 85.1187C48.2936 84.3804 48.0055 83.6702 47.488 83.1221C47.4478 83.0795 47.4062 83.0379 47.3633 82.9973C46.7676 82.4347 45.9596 82.1187 45.1171 82.1187H16.0583C15.6371 82.1187 15.2331 81.9606 14.9353 81.6793C14.6374 81.398 14.4701 81.0165 14.4701 80.6187C14.4701 80.2208 14.6374 79.8393 14.9353 79.558C15.2331 79.2767 15.6371 79.1187 16.0583 79.1187H45.1171C46.7416 79.1187 48.3018 79.7062 49.4794 80.7567C49.5233 80.7958 49.5666 80.8356 49.6094 80.876C50.8008 82.0012 51.4701 83.5274 51.4701 85.1187C51.4701 86.71 50.8008 88.2361 49.6094 89.3613C49.5666 89.4017 49.5233 89.4415 49.4794 89.4806C48.3018 90.5311 46.7416 91.1187 45.1171 91.1187C43.2758 91.1187 41.4753 90.3512 40.2241 89.1404C40.0158 88.9388 39.8228 88.7251 39.6473 88.5005C39.3571 88.129 39.1149 87.7281 38.9313 87.3044C38.9232 87.2855 38.9151 87.2666 38.9072 87.2477C38.8922 87.2119 38.8776 87.176 38.8635 87.1399C38.7403 86.8075 38.7454 86.4461 38.8751 86.1187Z" fill="black"/>
<path fill-rule="evenodd" clip-rule="evenodd" d="M64.1257 65.6726L64.1394 65.6376C65.7167 61.6138 69.9624 59.1187 74.1171 59.1187C76.7915 59.1187 79.3991 60.1199 81.3559 61.968C83.3204 63.8234 84.4701 66.3904 84.4701 69.1187C84.4701 71.847 83.3204 74.414 81.3559 76.2694C79.3991 78.1175 76.7915 79.1187 74.1171 79.1187H16.0583C14.6477 79.1187 13.252 78.5916 12.1888 77.5874C11.1178 76.5759 10.4701 75.1536 10.4701 73.6187C10.4701 72.0839 11.1178 70.6615 12.1888 69.65C13.252 68.6458 14.6477 68.1187 16.0583 68.1187H63.7999C63.7212 67.3117 63.8236 66.4878 64.1126 65.7078L64.1257 65.6726ZM67.8751 68.1187C67.8902 68.1567 67.9069 68.1943 67.9254 68.2313C68.1025 68.5869 68.4203 68.8628 68.8106 68.9994C69.2008 69.136 69.6322 69.1225 70.012 68.9617C70.3545 68.8168 70.6304 68.5626 70.7925 68.2456C70.8016 68.228 70.8102 68.2103 70.8185 68.1923C70.8265 68.175 70.8341 68.1576 70.8414 68.14C70.8442 68.1329 70.847 68.1258 70.8499 68.1187C71.0183 67.7019 71.3211 67.3192 71.706 67.0027C72.359 66.4655 73.2482 66.1187 74.1171 66.1187C74.9596 66.1187 75.7675 66.4348 76.3633 66.9974C76.4062 67.038 76.4478 67.0796 76.488 67.1222C77.0055 67.6702 77.2936 68.3804 77.2936 69.1187C77.2936 69.857 77.0055 70.5672 76.488 71.1152C76.4478 71.1578 76.4062 71.1995 76.3633 71.24C75.7675 71.8026 74.9596 72.1187 74.1171 72.1187H16.0583C15.6371 72.1187 15.2331 72.2767 14.9353 72.5581C14.6374 72.8394 14.4701 73.2209 14.4701 73.6187C14.4701 74.0165 14.6374 74.3981 14.9353 74.6794C15.2331 74.9607 15.6371 75.1187 16.0583 75.1187H74.1171C75.7416 75.1187 77.3018 74.5312 78.4794 73.4807C78.5233 73.4415 78.5666 73.4018 78.6094 73.3614C79.8008 72.2361 80.4701 70.71 80.4701 69.1187C80.4701 67.5274 79.8008 66.0013 78.6094 64.8761C78.5666 64.8357 78.5233 64.7959 78.4794 64.7568C77.3018 63.7063 75.7416 63.1187 74.1171 63.1187C72.2758 63.1187 70.4753 63.8862 69.2241 65.097C69.0158 65.2985 68.8228 65.5123 68.6473 65.7369C68.3571 66.1083 68.1149 66.5093 67.9313 66.933C67.9232 66.9518 67.9151 66.9707 67.9072 66.9897C67.8922 67.0254 67.8776 67.0614 67.8635 67.0975C67.7403 67.4299 67.7454 67.7913 67.8751 68.1187Z" fill="black"/>
<path fill-rule="evenodd" clip-rule="evenodd" d="M45.3175 57.3614L45.3308 57.3268C47.0155 52.9386 51.6181 50.1187 56.2108 50.1187C59.151 50.1187 61.9987 51.2435 64.1204 53.2895C66.2471 55.3403 67.4701 58.1534 67.4701 61.1187C67.4701 64.0839 66.2471 66.897 64.1204 68.9478C61.9987 70.9938 59.151 72.1187 56.2108 72.1187H16.2849C14.7887 72.1187 13.3258 71.5469 12.2251 70.4855C11.1194 69.4193 10.4701 67.9416 10.4701 66.3687C10.4701 64.7957 11.1194 63.318 12.2251 62.2518C13.3258 61.1904 14.7887 60.6187 16.2849 60.6187H45.1091C44.8642 59.5581 44.9262 58.4397 45.3049 57.3961L45.3175 57.3614ZM49.5406 60.6187C49.7145 60.7749 49.9201 60.8982 50.1472 60.9794C50.5931 61.1388 51.0861 61.123 51.5201 60.9355C51.7038 60.8561 51.8708 60.7486 52.0154 60.6187C52.1914 60.4604 52.3344 60.2688 52.4342 60.0541C52.4435 60.0339 52.4525 60.0135 52.4611 59.9929C52.4634 59.9875 52.4656 59.9822 52.4678 59.9768C52.5796 59.6856 52.7465 59.4085 52.9557 59.1532C53.6977 58.2482 54.9722 57.6187 56.2108 57.6187C57.1735 57.6187 58.0967 57.9874 58.7774 58.6438C58.8085 58.6738 58.8391 58.7044 58.869 58.7354C59.4923 59.3818 59.8405 60.2329 59.8405 61.1187C59.8405 62.0044 59.4923 62.8555 58.869 63.5019C58.8391 63.5329 58.8085 63.5635 58.7774 63.5935C58.0967 64.2499 57.1735 64.6187 56.2108 64.6187H16.2849C15.8036 64.6187 15.342 64.803 15.0016 65.1312C14.6613 65.4594 14.4701 65.9045 14.4701 66.3687C14.4701 66.8328 14.6613 67.2779 15.0016 67.6061C15.342 67.9343 15.8036 68.1187 16.2849 68.1187H56.2108C58.0921 68.1187 59.8981 67.4145 61.2498 66.1575C61.2814 66.1281 61.3128 66.0984 61.3439 66.0684C62.7053 64.7556 63.4701 62.9752 63.4701 61.1187C63.4701 59.2621 62.7053 57.4817 61.3439 56.1689C61.3128 56.1389 61.2814 56.1092 61.2498 56.0798C59.8981 54.8228 58.0921 54.1187 56.2108 54.1187C53.7044 54.1187 51.2643 55.3892 49.8724 57.2912C49.5691 57.7056 49.3156 58.1499 49.122 58.6177C49.1131 58.6391 49.1044 58.6605 49.0958 58.6821C49.0853 58.7081 49.0751 58.7343 49.065 58.7605C48.9079 59.1934 48.9333 59.6683 49.1357 60.0833C49.235 60.2869 49.3731 60.4681 49.5406 60.6187Z" fill="black"/>
<path fill-rule="evenodd" clip-rule="evenodd" d="M40.5853 5.2726L40.5858 5.27268C44.2842 5.93999 48.7623 5.81391 52.9661 5.28291C57.1653 4.75248 60.7595 3.8616 62.6057 3.19854L71.5117 0L67.6 8.61659C64.3617 15.7499 60.8792 21.0209 57.721 24.7464C54.6355 28.3863 51.686 30.7535 49.4149 31.7931C43.1871 34.6598 37.2527 34.3361 32.5392 32.486C29.531 31.3052 26.9186 29.4569 25.0445 27.3369C22.5363 28.6007 20.1874 30.0224 19.0553 30.7305C16.5125 32.3208 13.1077 31.1007 12.2058 28.1872C11.5506 26.0708 12.4923 23.7171 14.5717 22.6994L14.5717 22.6994C15.6806 22.1566 18.7129 20.6955 21.9688 19.3394C22.0805 13.3958 24.5062 9.18248 28.5375 6.87173C32.4618 4.62231 37.1228 4.64825 40.5853 5.2726ZM19.3703 24.8506C18.0057 25.4787 16.9107 26.008 16.3301 26.2921C16.3171 26.2985 16.3044 26.3053 16.292 26.3125C16.0536 26.4513 15.944 26.7366 16.0268 27.0042C16.1368 27.3593 16.5341 27.5269 16.8617 27.3781C16.8863 27.367 16.9105 27.354 16.9342 27.3392C17.4189 27.036 18.1411 26.5924 19.0174 26.0784C19.0174 26.0784 19.0174 26.0784 19.0174 26.0784C19.2616 25.9352 19.5178 25.7865 19.7841 25.6339C20.7001 25.109 21.7365 24.5375 22.82 23.9811C23.2103 23.7807 23.6067 23.5822 24.0058 23.3886C24.813 22.997 25.6312 22.6252 26.4322 22.2971C26.4368 22.2952 26.4413 22.2934 26.4459 22.2915C26.8912 23.2819 27.6407 24.331 28.6442 25.3236C32.3684 29.0076 39.5911 31.9138 47.7468 28.1576C50.4054 26.9423 56.0445 22.1115 61.5574 11.8289C62.3635 10.3254 63.1668 8.70541 63.9578 6.96312C62.7279 7.40484 60.9593 7.89699 58.8631 8.34223C53.5009 9.48118 45.9947 10.3132 39.8755 9.20912C34.3149 8.20647 26.8444 9.35703 26.0362 18.1373C25.9695 18.8622 25.9482 19.6392 25.9771 20.4712C25.992 20.9012 26.0899 21.364 26.2646 21.8456C26.2676 21.8538 26.2706 21.862 26.2736 21.8702C26.2807 21.8897 26.288 21.9092 26.2954 21.9287C26.0142 22.0331 25.7304 22.1409 25.4453 22.2513C23.3217 23.0738 21.1235 24.0437 19.3703 24.8506Z" fill="black"/>
<path fill-rule="evenodd" clip-rule="evenodd" d="M33.4038 32.5167C36.6914 34.3376 40.9723 35.6579 45.1236 36.5066C49.2704 37.3543 52.9603 37.6662 54.9216 37.6319L64.3831 37.4663L57.9089 44.3679C52.5492 50.0815 47.557 53.953 43.3688 56.4655C39.2769 58.9202 35.7229 60.2134 33.2382 60.4678C26.4194 61.18 20.9042 58.9657 17.0356 55.6984C14.5667 53.6133 12.6872 51.0232 11.5942 48.4133C8.81279 48.8036 11.1315 48.3947 9.83189 48.7012C6.91286 49.3897 4.08107 47.1397 4.16365 44.0909C4.22363 41.8763 5.87202 39.9503 8.16824 39.655C9.3928 39.4976 7.73382 40.0888 11.2529 39.8515C13.2695 34.2594 16.9209 31.0496 21.4811 30.1575C25.9202 29.2891 30.3258 30.8123 33.4038 32.5167ZM12.5 44C11.006 44.156 9.31941 43.54 8.67832 43.6224C8.66392 43.6242 8.64971 43.6266 8.63569 43.6294C8.36529 43.6842 8.16977 43.9191 8.16219 44.1992C8.15213 44.5707 8.47444 44.8572 8.8325 44.8216C8.8594 44.8189 8.8865 44.8145 8.91368 44.808C9.22491 44.7346 10.5079 44.5291 10.5667 44.5204C11.0006 44.4561 11.4398 44.3957 11.8799 44.3406C12.7702 44.2293 23.5 44.0872 24.5284 44.0872C24.5 44.5 14.5 44.9138 14.5 45C14.6033 46.081 15.0189 46.4016 15.65 47.6641C17.9921 52.3498 23.8971 57.4238 32.8274 56.4889C35.7356 56.1929 42.6284 53.4315 51.1544 45.467C52.401 44.3025 53.6825 43.0268 54.9916 41.6313C53.685 41.6542 51.8521 41.5516 49.724 41.2993C44.2804 40.6539 36.9052 39.0286 31.4657 36.0159C26.5227 33.2788 19.0789 31.9665 15.4908 40.0209C15.1946 40.6859 14.9246 41.4147 14.6845 42.2118C14.5604 42.6238 24.5043 43.0935 24.5149 43.6057C21.7748 43.6294 14.6082 43.7799 12.5 44Z" fill="black"/>
<path fill-rule="evenodd" clip-rule="evenodd" d="M63.2007 25.6716L63.2008 25.672C63.8914 28.7192 63.9518 32.4432 63.6658 35.9542C63.38 39.4614 62.7726 42.4795 62.29 44.0373L59.9618 51.5522L66.9742 47.9856C72.7794 45.033 77.0288 41.9462 80.0067 39.1858C82.916 36.4889 84.7734 33.9519 85.5531 32.0273C87.7044 26.749 87.2167 21.8321 85.5063 17.9855C84.4147 15.5305 82.7833 13.429 80.9534 11.9506C81.9106 9.82073 83.0048 7.81741 83.5512 6.85104C84.7783 4.68051 83.6393 1.89761 81.1862 1.25589C79.4044 0.789762 77.4842 1.65866 76.7155 3.42326L76.7155 3.42327C76.3056 4.36432 75.2039 6.93664 74.1976 9.69088C69.2653 10.0028 65.8553 12.1728 64.0847 15.6062C62.3611 18.9486 62.5545 22.8188 63.2007 25.6716ZM78.6792 7.32949C79.1505 6.17298 79.5498 5.24396 79.7644 4.7513C79.7692 4.74023 79.7744 4.72943 79.7799 4.7189C79.8864 4.51574 80.1193 4.41419 80.3446 4.47314C80.6436 4.55134 80.7975 4.87515 80.686 5.15273C80.6776 5.17359 80.6677 5.19418 80.6563 5.21439C80.4223 5.62818 80.0805 6.2443 79.6859 6.9911C79.6859 6.99111 79.6859 6.99112 79.6859 6.99112C79.576 7.19922 79.4619 7.41746 79.345 7.6443C78.9428 8.42445 78.5064 9.30628 78.0842 10.2267C77.9321 10.5583 77.7819 10.8948 77.6358 11.2334C77.3403 11.9183 77.0617 12.6116 76.8187 13.2889C76.8174 13.2928 76.816 13.2967 76.8146 13.3006C77.6536 13.6339 78.5525 14.2177 79.414 15.0145C82.611 17.9719 85.2911 23.8636 82.4721 30.7759C81.5608 33.0288 77.7564 37.8905 69.4193 42.8484C68.2004 43.5733 66.8845 44.3003 65.4665 45.0215C65.7881 43.9837 66.1316 42.4966 66.4241 40.7392C67.1724 36.2436 67.5867 29.9786 66.4441 24.9369C65.4063 20.3555 66.0865 14.1084 73.3492 13.1134C73.9488 13.0313 74.5933 12.9849 75.2854 12.9783C75.6431 12.9748 76.0311 13.039 76.4376 13.1664C76.4445 13.1686 76.4514 13.1707 76.4583 13.1729C76.4748 13.1782 76.4912 13.1835 76.5077 13.1889C76.584 12.9515 76.6631 12.7118 76.7443 12.4709C77.3491 10.6769 78.0737 8.8154 78.6792 7.32949Z" fill="black"/>
</svg>
