<svg width="100" height="100" viewBox="0 0 100 100" fill="none" xmlns="http://www.w3.org/2000/svg">
<path fill-rule="evenodd" clip-rule="evenodd" d="M86.6121 21.75H12.9999L49.806 9L86.6121 21.75ZM62.8449 17.75L49.806 13.2332L36.7671 17.75H62.8449ZM78.0406 24.3198C77.9404 24.1302 77.8029 23.9623 77.6361 23.8258C77.4693 23.6894 77.2766 23.5872 77.0694 23.5252C76.862 23.4631 76.6443 23.4426 76.4288 23.4647L66.6433 24.4705C66.2328 24.5143 65.8549 24.7104 65.5858 25.0183C65.5781 25.0271 65.5705 25.036 65.563 25.045C65.391 25.2506 65.2751 25.4932 65.2225 25.75C65.1924 25.897 65.183 26.0488 65.1958 26.2009L69.2657 75.4638C69.2838 75.6798 69.3459 75.89 69.4484 76.0817C69.5509 76.2734 69.6916 76.4427 69.8621 76.5793C70.0325 76.716 70.2292 76.8171 70.4403 76.8768C70.6514 76.9364 70.8726 76.9533 71.0904 76.9263L80.88 75.721C81.2968 75.6695 81.6774 75.461 81.9421 75.139C81.9788 75.0943 82.013 75.0479 82.0444 75C82.2393 74.703 82.3304 74.3492 82.3004 73.9933L78.2196 24.9299C78.2017 24.7168 78.1408 24.5094 78.0406 24.3198ZM69.3755 28.2108L74.4354 27.6907L78.1233 72.0302L73.0473 72.6552L69.3755 28.2108ZM14.7045 79.092C13.8939 79.3474 13.306 80.105 13.306 81V89C13.306 90.1046 14.2015 91 15.306 91H84.306C85.4106 91 86.306 90.1046 86.306 89V81C86.306 79.8954 85.4106 79 84.306 79H15.306C15.0964 79 14.8944 79.0322 14.7045 79.092ZM26.5658 76.9996C26.5543 76.9999 26.5428 77 26.5312 77H18.934C18.5022 77 18.0881 76.8307 17.7828 76.5293C17.4775 76.2279 17.306 75.8191 17.306 75.3928V25.0357C17.306 24.8345 17.3442 24.6372 17.4167 24.4532C17.4978 24.2474 17.6217 24.0584 17.7828 23.8993C18.0881 23.5979 18.5022 23.4286 18.934 23.4286H26.5312C26.963 23.4286 27.3771 23.5979 27.6824 23.8993C27.9877 24.2007 28.1592 24.6095 28.1592 25.0357V75.3928C28.1592 75.8191 27.9877 76.2279 27.6824 76.5293C27.3853 76.8226 26.9851 76.9908 26.5658 76.9996ZM30.3299 75.3928C30.3299 75.8191 30.5014 76.2279 30.8067 76.5293C31.1038 76.8226 31.504 76.9908 31.9233 76.9996C31.9348 76.9999 31.9463 77 31.9578 77H46.067C46.0786 77 46.0901 76.9999 46.1016 76.9996C46.5208 76.9908 46.921 76.8226 47.2182 76.5293C47.5235 76.2279 47.695 75.8191 47.695 75.3928V68.4286H30.3299V75.3928ZM43.695 73V72.4286H34.3299V73H43.695ZM49.8656 75.3928C49.8656 75.8191 50.0372 76.2279 50.3425 76.5293C50.6396 76.8226 51.0398 76.9908 51.459 76.9996C51.4705 76.9999 51.4821 77 51.4936 77H61.2615C61.6933 77 62.1073 76.8307 62.4127 76.5293C62.718 76.2279 62.8895 75.8191 62.8895 75.3928V28.6071C62.8895 28.1809 62.718 27.7721 62.4127 27.4707C62.1073 27.1693 61.6933 27 61.2615 27H51.4936C51.0618 27 50.6478 27.1693 50.3425 27.4707C50.0372 27.7721 49.8656 28.1809 49.8656 28.6071V75.3928ZM58.8895 73V31H53.8656V73H58.8895ZM47.695 64.1428H30.3299V44.8571H47.695V64.1428ZM43.695 48.8571H34.3299V60.1428H43.695V48.8571ZM43.695 36.5714V36H34.3299V36.5714H43.695ZM46.067 32C46.4988 32 46.9129 32.1693 47.2182 32.4707C47.5235 32.7721 47.695 33.1809 47.695 33.6071V40.5714H30.3299V33.6071C30.3299 33.1809 30.5014 32.7721 30.8067 32.4707C31.112 32.1693 31.5261 32 31.9578 32H46.067ZM24.1592 73V27.4286H21.306V73H24.1592ZM17.306 83V87H82.306V83H17.306Z" fill="black"/>
</svg>
