<svg width="100" height="100" viewBox="0 0 100 100" fill="none" xmlns="http://www.w3.org/2000/svg">
<path fill-rule="evenodd" clip-rule="evenodd" d="M43.2333 23.834L40.699 23.482C40.4313 23.4448 40.1887 23.4001 40.0015 23.3642C39.9043 23.3456 39.8337 23.3317 39.773 23.3198C39.6912 23.3037 39.6273 23.2911 39.5399 23.2751C39.4206 23.2532 39.3472 23.2422 39.2958 23.2362C39.2476 23.2306 39.2294 23.2308 39.2308 23.2308C33.5283 23.2308 28.8003 27.1746 27.2122 32.7327L26.4149 35.5234L23.5145 35.6311C18.2299 35.8272 14 40.1486 14 45.3846C14 50.7847 18.4461 55.2308 23.8462 55.2308H73.0769C80.1786 55.2308 86 49.4093 86 42.3077C86 36.3849 81.8102 31.4479 76.0655 30.0387L73.5984 29.4335L73.0971 26.9431C71.605 19.5302 65.3109 14 57.6923 14C52.268 14 47.5889 17.0482 44.6155 21.6807L43.2333 23.834ZM73.0769 59.2308C73.1096 59.2308 73.1423 59.2307 73.1749 59.2305C75.0425 59.2198 76.8407 58.9028 78.5217 58.3276C85.181 56.0486 90 49.7158 90 42.3077C90 34.3846 84.3938 27.9631 77.0185 26.1538C75.1785 17.0123 67.3539 10 57.6923 10C50.6462 10 44.8062 13.9785 41.2492 19.52C41.0226 19.4885 40.7999 19.4449 40.5762 19.401C40.1437 19.3163 39.7073 19.2308 39.2308 19.2308C31.5323 19.2308 25.3846 24.5692 23.3662 31.6338C15.9877 31.9077 10 37.9415 10 45.3846C10 52.9938 16.2369 59.2308 23.8462 59.2308H73.0769ZM20.0954 71.6338C21.2347 69.8138 24.509 68.1357 27.4511 66.7693C27.946 66.5394 28.4316 66.3183 28.896 66.1069C29.876 65.6607 30.7618 65.2574 31.4431 64.9046C31.4426 65.9397 31.4529 66.923 31.4626 67.8539C31.4679 68.3601 31.473 68.8508 31.4762 69.3259C31.5023 73.2755 31.3913 76.1476 30.0954 77.8861C28.1415 80.5077 24.6892 81.5477 21.9231 79.8092C21.2646 79.3939 20.6948 78.8525 20.2463 78.2162C19.7978 77.5799 19.4795 76.8612 19.3096 76.1015C19.1398 75.3418 19.1217 74.556 19.2566 73.7892C19.3914 73.0225 19.6765 72.29 20.0954 71.6338ZM27.4738 71.1933C27.361 71.2495 27.2487 71.306 27.137 71.3628C26.0868 71.8968 25.183 72.4123 24.4852 72.9014C24.1409 73.1427 23.8866 73.35 23.7082 73.5185C23.5412 73.6763 23.4846 73.7589 23.4843 73.7587L23.4765 73.7712L23.467 73.7861C23.3317 73.998 23.2397 74.2346 23.1961 74.4821C23.1526 74.7297 23.1584 74.9835 23.2132 75.2288C23.2681 75.4741 23.3709 75.7062 23.5157 75.9117C23.6599 76.1162 23.8429 76.2904 24.0543 76.4243C24.4407 76.6662 24.8554 76.7265 25.3258 76.6066C25.8363 76.4765 26.4244 76.1181 26.8882 75.4958C27.0008 75.3447 27.3126 74.7185 27.426 72.6551C27.4517 72.1878 27.4664 71.7033 27.4738 71.1933ZM71.5322 63.2308C71.6809 63.1629 71.828 63.096 71.9729 63.03C72.3577 62.8548 72.7279 62.6863 73.0769 62.5248C73.6169 62.2749 74.1062 62.042 74.52 61.8277C74.5198 62.2891 74.5217 62.7402 74.5248 63.181C74.5286 63.729 74.5341 64.261 74.5395 64.777C74.5448 65.2832 74.5499 65.7739 74.5531 66.249C74.5793 70.1986 74.4682 73.0707 73.1723 74.8092C71.2185 77.4308 67.7662 78.4708 65 76.7323C64.3416 76.317 63.7717 75.7756 63.3232 75.1393C62.8747 74.503 62.5564 73.7843 62.3865 73.0246C62.2167 72.2649 62.1987 71.479 62.3335 70.7123C62.4684 69.9456 62.7534 69.2131 63.1723 68.5569C64.3116 66.7369 67.5859 65.0588 70.528 63.6924C70.8684 63.5342 71.2044 63.3803 71.5322 63.2308ZM70.5507 68.1164C70.4379 68.1726 70.3256 68.229 70.2139 68.2858C69.1638 68.8199 68.2599 69.3354 67.5621 69.8244C67.2178 70.0658 66.9635 70.2731 66.7851 70.4416C66.6181 70.5994 66.5615 70.682 66.5613 70.6818L66.5534 70.6943L66.5439 70.7092C66.4087 70.9211 66.3166 71.1576 66.2731 71.4052C66.2295 71.6528 66.2353 71.9066 66.2902 72.1519C66.345 72.3972 66.4478 72.6293 66.5926 72.8347C66.7368 73.0393 66.9198 73.2135 67.1312 73.3473C67.5176 73.5892 67.9324 73.6496 68.4028 73.5297C68.9133 73.3996 69.5013 73.0412 69.9651 72.4189C70.0777 72.2678 70.3895 71.6416 70.503 69.5782C70.5286 69.1109 70.5433 68.6264 70.5507 68.1164ZM45.015 83.002L45.0054 83.0169C44.8702 83.2288 44.7781 83.4653 44.7346 83.7129C44.691 83.9605 44.6969 84.2142 44.7517 84.4596C44.8065 84.7049 44.9093 84.937 45.0542 85.1424C45.1984 85.347 45.3814 85.5211 45.5927 85.655C45.9791 85.8969 46.3939 85.9573 46.8643 85.8374C47.3748 85.7073 47.9628 85.3489 48.4266 84.7266C48.5392 84.5755 48.8511 83.9492 48.9645 81.8858C48.9902 81.4185 49.0049 80.9341 49.0122 80.4241C48.8995 80.4802 48.7872 80.5367 48.6755 80.5935C47.6253 81.1276 46.7215 81.6431 46.0237 82.1321C45.6793 82.3735 45.4251 82.5808 45.2467 82.7493C45.0797 82.9071 45.023 82.9896 45.0228 82.9895L45.015 83.002ZM48.9895 76C49.4845 75.7701 49.9701 75.5491 50.4345 75.3376C51.4145 74.8915 52.3003 74.4882 52.9815 74.1354C52.981 75.1705 52.9913 76.1538 53.0011 77.0847C53.0064 77.5909 53.0115 78.0816 53.0146 78.5567C53.0408 82.5062 52.9297 85.3783 51.6338 87.1169C49.68 89.7384 46.2277 90.7785 43.4615 89.04C42.8031 88.6246 42.2333 88.0833 41.7847 87.447C41.3362 86.8107 41.0179 86.092 40.8481 85.3323C40.6782 84.5725 40.6602 83.7867 40.7951 83.02C40.9299 82.2533 41.215 81.5208 41.6338 80.8646C42.7731 79.0446 46.0474 77.3665 48.9895 76Z" fill="black"/>
</svg>
