<svg width="100" height="100" viewBox="0 0 100 100" fill="none" xmlns="http://www.w3.org/2000/svg">
<path fill-rule="evenodd" clip-rule="evenodd" d="M41.75 26.4593L59 16.5L41.75 6.54071V26.4593ZM45.75 19.5311V13.4689L51 16.5L45.75 19.5311ZM32 19.5L14.75 29.4593L14.75 9.54071L32 19.5ZM18.75 16.4689L18.75 22.5311L24 19.5L18.75 16.4689ZM10.1973 80.2448C11.1919 81.3954 17.0554 86.3174 32 88.9086C33.2672 89.1284 34.5997 89.3313 36 89.5138V67H64V89.777C65.3997 89.6092 66.7323 89.4168 68 89.2042C82.8778 86.7092 88.8334 81.4239 89.8144 80.2391C89.9426 80.0843 90 79.8925 90 79.6915V41.2166C90 41.0739 89.9733 40.9399 89.9012 40.8167C89.0623 39.3812 82.3605 30 50.5 30C17.7144 30 10.9429 39.3821 10.0991 40.8169C10.0267 40.9399 10 41.0739 10 41.2166V79.6848C10 79.89 10.0632 80.0896 10.1973 80.2448ZM68 85.1454C74.1189 84.0634 78.4885 82.5044 81.4676 81.08C83.3003 80.2037 84.6088 79.3775 85.4782 78.742C85.6782 78.5958 85.8514 78.4623 86 78.3431V42.275C84.2109 40.322 76.4112 34 50.5 34C23.793 34 15.8204 40.336 14 42.2881V78.2826C14.1314 78.3817 14.2812 78.4908 14.4507 78.6088C15.3133 79.2095 16.6166 79.9941 18.4524 80.836C21.4383 82.2053 25.8273 83.7235 32 84.8461V63H68V85.1454ZM86 19.5L68.75 29.4593V9.54071L86 19.5ZM72.75 16.4689V22.5311L78 19.5L72.75 16.4689ZM49.9999 36C42.3114 36 35.1608 37.1518 29.9461 38.2965C27.3344 38.8698 25.1973 39.4438 23.7079 39.8762C22.963 40.0925 22.3794 40.2735 21.9786 40.4017C21.7782 40.4658 21.6235 40.5166 21.5171 40.5521C21.464 40.5698 21.4229 40.5837 21.3942 40.5934L21.3605 40.6049L21.3507 40.6083L21.3465 40.6097L18.8497 41.474C17.9795 41.7753 17.9446 42.9931 18.7961 43.3437L21.2384 44.3494L21.9999 42.5C21.2384 44.3494 21.24 44.35 21.24 44.35L21.2418 44.3507L21.2458 44.3524L21.2564 44.3567L21.2868 44.3689C21.3113 44.3786 21.3442 44.3915 21.3856 44.4073C21.4684 44.439 21.585 44.4824 21.7362 44.5359C22.0385 44.6428 22.4788 44.79 23.0618 44.9636C24.228 45.311 25.9647 45.7643 28.3107 46.2142C33.0033 47.1142 40.1297 48 49.9999 48C59.8702 48 66.9965 47.1142 71.6891 46.2142C74.0352 45.7643 75.7719 45.311 76.9381 44.9636C77.5211 44.79 77.9614 44.6428 78.2637 44.5359C78.4148 44.4824 78.5315 44.439 78.6143 44.4073C78.6556 44.3915 78.6885 44.3786 78.7131 44.3689L78.7435 44.3567L78.754 44.3524L78.7599 44.35C78.7599 44.35 78.7614 44.3494 77.9999 42.5L78.7614 44.3494L81.2038 43.3437C82.0553 42.9931 82.0204 41.7753 81.1501 41.474L78.6534 40.6097L78.6491 40.6083L78.6394 40.6049L78.6057 40.5934C78.577 40.5837 78.5359 40.5698 78.4827 40.5521C78.3764 40.5166 78.2216 40.4658 78.0213 40.4017C77.6205 40.2735 77.0369 40.0925 76.2919 39.8762C74.8025 39.4438 72.6655 38.8698 70.0538 38.2965C64.8391 37.1518 57.6885 36 49.9999 36ZM78.6534 40.6097L77.9999 42.5C78.6542 40.61 78.6534 40.6097 78.6534 40.6097ZM21.9999 42.5L21.3465 40.6097C21.3465 40.6097 21.3457 40.61 21.9999 42.5ZM49.9999 44C40.8983 44 34.2588 43.228 29.8155 42.4256C30.1363 42.3518 30.4658 42.2777 30.8038 42.2035C35.8391 41.0982 42.6885 40 49.9999 40C57.3114 40 64.1608 41.0982 69.1961 42.2035C69.534 42.2777 69.8636 42.3518 70.1844 42.4256C65.7411 43.228 59.1016 44 49.9999 44Z" fill="black"/>
</svg>
