<svg width="100" height="100" viewBox="0 0 100 100" fill="none" xmlns="http://www.w3.org/2000/svg">
<path fill-rule="evenodd" clip-rule="evenodd" d="M9 18H61.5C62.6046 18 63.5 18.8954 63.5 20V24H67.75V21C67.75 20.4477 68.1977 20 68.75 20H71.875C72.4273 20 72.875 20.4477 72.875 21V24H78L94 48V70.5C94 71.6046 93.1046 72.5 92 72.5H86C86 72.5 86 60.5 74 60.5C63 60.5 63 72.5 63 72.5H38C38 72.5 38 60.5 26.5 60.5C15 60.5 15 72.5 15 72.5H9C7.89543 72.5 7 71.6046 7 70.5V20C7 18.8954 7.89543 18 9 18ZM63 30.1V47.9C63 47.9552 63.0448 48 63.1 48H86.0362C86.4414 48 86.6783 47.5433 86.445 47.2121L74.4701 30.2121C74.3765 30.0791 74.224 30 74.0614 30H63.1C63.0448 30 63 30.0448 63 30.1ZM25 34.5H18V41.5H25V48.5H31.5V41.5H38.5V34.5H31.5V27.5H25V34.5ZM36 72.5C36 77.7467 31.7467 82 26.5 82C21.2533 82 17 77.7467 17 72.5C17 67.2533 21.2533 63 26.5 63C31.7467 63 36 67.2533 36 72.5ZM84 72.5C84 77.7467 79.7467 82 74.5 82C69.2533 82 65 77.7467 65 72.5C65 67.2533 69.2533 63 74.5 63C79.7467 63 84 67.2533 84 72.5Z" fill="black"/>
</svg>
